<svg width="211" height="106" viewBox="0 0 211 106" fill="none" xmlns="http://www.w3.org/2000/svg">
<path d="M211 0H0V106H211V0Z" fill="black"/>
<path d="M142 32.5H128C125.515 32.5 123.5 34.5147 123.5 37V96C123.5 98.4853 125.515 100.5 128 100.5H142C144.485 100.5 146.5 98.4853 146.5 96V37C146.5 34.5147 144.485 32.5 142 32.5Z" fill="black" stroke="white"/>
<path d="M24.4453 96H16.8691L16.3242 92.5547H11.3848L10.7871 96H3.21088L9.73238 68.8594H18.6973L24.4453 96ZM15.4629 86.7363L14.9883 83.5723C14.9766 83.5605 14.9531 83.4023 14.918 83.0977C14.8945 82.8398 14.7715 81.8203 14.5488 80.0391C14.5254 79.8398 14.4961 79.5703 14.4609 79.2305C14.4258 78.8789 14.3789 78.4395 14.3203 77.9121L14.0918 75.3457C14.0684 75.5918 14.0332 75.8672 13.9863 76.1719C13.9512 76.4766 13.9102 76.8105 13.8633 77.1738C13.7812 77.9004 13.7227 78.4043 13.6875 78.6855C13.6523 78.9668 13.6289 79.1367 13.6172 79.1953L13.1074 82.4824L12.3691 86.7363H15.4629ZM37.8645 96H30.5344V75.3633H26.4914V68.8594H42.0656V75.3633H37.8645V96ZM65.6801 96H57.7699L52.9008 83.4844L53.0941 96H45.7641V68.8594H53.0941L52.9008 80.4961L57.225 68.8594H64.9594L59.1059 81.9551L65.6801 96ZM76.937 96H69.607V68.8594H76.937V96ZM82.552 96V68.8594H89.548L93.221 78.3867C93.421 78.9492 93.643 79.5938 93.889 80.3203C94.147 81.0469 94.429 81.8848 94.733 82.834L95.489 85.2246C95.22 82.8691 95.014 80.8535 94.874 79.1777C94.733 77.502 94.663 76.0957 94.663 74.959V68.8594H101.659V96H94.663L90.971 86.0156C90.585 84.9492 90.233 83.9531 89.917 83.0273C89.612 82.0898 89.343 81.1992 89.108 80.3555C89.261 82.2656 89.372 83.9297 89.442 85.3477C89.512 86.7656 89.548 88.0078 89.548 89.0742V96H82.552ZM106.693 95.332V86.8066C108.135 88.7754 109.693 89.7598 111.369 89.7598C112.002 89.7598 112.518 89.5957 112.916 89.2676C113.314 88.9277 113.514 88.5059 113.514 88.002C113.514 87.2754 113.08 86.5664 112.213 85.875L111.018 84.9434C110.221 84.3457 109.541 83.7539 108.979 83.168C108.416 82.5703 107.959 81.9609 107.607 81.3398C107.256 80.707 106.998 80.0566 106.834 79.3887C106.67 78.7207 106.588 78.0176 106.588 77.2793C106.588 76.0137 106.881 74.6895 107.467 73.3066C107.76 72.6621 108.1 72.0762 108.486 71.5488C108.873 71.0098 109.318 70.5352 109.822 70.125C111.205 68.9531 112.875 68.3672 114.832 68.3672C116.578 68.3672 118.336 68.8301 120.105 69.7559V78.0527C119.508 77.127 118.828 76.4004 118.066 75.873C117.305 75.334 116.555 75.0645 115.816 75.0645C115.254 75.0645 114.791 75.2285 114.428 75.5566C114.053 75.873 113.865 76.2539 113.865 76.6992C113.865 77.4258 114.363 78.1465 115.359 78.8613L116.52 79.7227C118.066 80.8359 119.174 81.9785 119.842 83.1504C120.521 84.3223 120.861 85.6934 120.861 87.2637C120.861 89.9355 120.047 92.1387 118.418 93.873C116.789 95.607 114.727 96.475 112.23 96.475C110.508 96.475 108.662 96.094 106.693 95.332ZM145.478 82.5176C145.478 86.6543 144.534 90.0176 142.648 92.6074C140.773 95.186 138.329 96.475 135.318 96.475C132.646 96.475 130.355 95.484 128.445 93.5039C126.042 90.9961 124.841 87.2344 124.841 82.2188C124.841 77.4141 126.095 73.7402 128.603 71.1973C130.466 69.3105 132.675 68.3672 135.23 68.3672C138.359 68.3672 140.849 69.6445 142.7 72.1992C144.552 74.7539 145.478 78.1934 145.478 82.5176ZM137.866 82.5703C137.866 77.6602 136.999 75.2051 135.265 75.2051C134.398 75.2051 133.706 75.8496 133.191 77.1387C132.687 78.334 132.435 80.0918 132.435 82.4121C132.435 84.6973 132.669 86.4727 133.138 87.7383C133.618 88.9922 134.28 89.6191 135.124 89.6191C135.991 89.6191 136.659 88.998 137.128 87.7559C137.62 86.5137 137.866 84.7852 137.866 82.5703ZM150.424 96V68.8594H157.42L161.094 78.3867C161.293 78.9492 161.516 79.5938 161.762 80.3203C162.02 81.0469 162.301 81.8848 162.606 82.834L163.362 85.2246C163.092 82.8691 162.887 80.8535 162.746 79.1777C162.606 77.502 162.536 76.0957 162.536 74.959V68.8594H169.532V96H162.536L158.844 86.0156C158.457 84.9492 158.106 83.9531 157.789 83.0273C157.485 82.0898 157.215 81.1992 156.981 80.3555C157.133 82.2656 157.245 83.9297 157.315 85.3477C157.385 86.7656 157.42 88.0078 157.42 89.0742V96H150.424Z" fill="white"/>
<path d="M121.73 66H108.898V38.8594H116.229V59.4785H121.73V66ZM145.556 52.5176C145.556 56.6543 144.612 60.0176 142.726 62.6074C140.851 65.1855 138.407 66.4746 135.396 66.4746C132.724 66.4746 130.433 65.4844 128.523 63.5039C126.12 60.9961 124.919 57.2344 124.919 52.2188C124.919 47.4141 126.173 43.7402 128.681 41.1973C130.544 39.3105 132.753 38.3672 135.308 38.3672C138.437 38.3672 140.927 39.6445 142.779 42.1992C144.63 44.7539 145.556 48.1934 145.556 52.5176ZM137.945 52.5703C137.945 47.6602 137.077 45.2051 135.343 45.2051C134.476 45.2051 133.784 45.8496 133.269 47.1387C132.765 48.334 132.513 50.0918 132.513 52.4121C132.513 54.6973 132.747 56.4727 133.216 57.7383C133.696 58.9922 134.359 59.6191 135.202 59.6191C136.07 59.6191 136.737 58.998 137.206 57.7559C137.698 56.5137 137.945 54.7852 137.945 52.5703ZM161.577 38.8594H168.907V58.0547C168.907 59.6602 168.655 60.9609 168.151 61.957C167.659 63 166.838 63.9434 165.69 64.7871C164.143 65.9121 162.262 66.4746 160.047 66.4746C157.539 66.4746 155.436 65.8535 153.737 64.6113C151.58 63.0293 150.502 60.498 150.502 57.0176V38.8594H157.832V56.3672C157.832 57.5508 157.973 58.3887 158.254 58.8809C158.547 59.373 159.034 59.6191 159.713 59.6191C160.416 59.6191 160.903 59.3906 161.172 58.9336C161.442 58.4531 161.577 57.6035 161.577 56.3848V38.8594ZM181.851 66H174.521V38.8594H181.851V66ZM186.886 65.332V56.8066C188.327 58.7754 189.886 59.7598 191.561 59.7598C192.194 59.7598 192.71 59.5957 193.108 59.2676C193.507 58.9277 193.706 58.5059 193.706 58.002C193.706 57.2754 193.272 56.5664 192.405 55.875L191.21 54.9434C190.413 54.3457 189.733 53.7539 189.171 53.168C188.608 52.5703 188.151 51.9609 187.8 51.3398C187.448 50.707 187.19 50.0566 187.026 49.3887C186.862 48.7207 186.78 48.0176 186.78 47.2793C186.78 46.0137 187.073 44.6895 187.659 43.3066C187.952 42.6621 188.292 42.0762 188.679 41.5488C189.065 41.0098 189.511 40.5352 190.014 40.125C191.397 38.9531 193.067 38.3672 195.024 38.3672C196.77 38.3672 198.528 38.8301 200.298 39.7559V48.0527C199.7 47.127 199.02 46.4004 198.259 45.873C197.497 45.334 196.747 45.0645 196.009 45.0645C195.446 45.0645 194.983 45.2285 194.62 45.5566C194.245 45.873 194.057 46.2539 194.057 46.6992C194.057 47.4258 194.555 48.1465 195.552 48.8613L196.712 49.7227C198.259 50.8359 199.366 51.9785 200.034 53.1504C200.714 54.3223 201.054 55.6934 201.054 57.2637C201.054 59.9355 200.239 62.1387 198.61 63.873C196.981 65.6074 194.919 66.4746 192.423 66.4746C190.7 66.4746 188.854 66.0938 186.886 65.332Z" fill="white"/>
</svg>
