<svg width="211" height="78" viewBox="0 0 211 78" fill="none" xmlns="http://www.w3.org/2000/svg">
<path d="M142 4.5H128C125.515 4.5 123.5 6.51472 123.5 9V68C123.5 70.4853 125.515 72.5 128 72.5H142C144.485 72.5 146.5 70.4853 146.5 68V9C146.5 6.51472 144.485 4.5 142 4.5Z" stroke="black"/>
<path d="M24.4453 68H16.8691L16.3242 64.5547H11.3848L10.7871 68H3.21091L9.73241 40.8594H18.6973L24.4453 68ZM15.4629 58.7363L14.9883 55.5723C14.9766 55.5605 14.9531 55.4023 14.918 55.0977C14.8945 54.8398 14.7715 53.8203 14.5488 52.0391C14.5254 51.8398 14.4961 51.5703 14.4609 51.2305C14.4258 50.8789 14.3789 50.4395 14.3203 49.9121L14.0918 47.3457C14.0684 47.5918 14.0332 47.8672 13.9863 48.1719C13.9512 48.4766 13.9102 48.8105 13.8633 49.1738C13.7812 49.9004 13.7227 50.4043 13.6875 50.6855C13.6523 50.9668 13.6289 51.1367 13.6172 51.1953L13.1074 54.4824L12.3691 58.7363H15.4629ZM37.8645 68H30.5344V47.3633H26.4914V40.8594H42.0656V47.3633H37.8645V68ZM65.6801 68H57.7699L52.9008 55.4844L53.0941 68H45.7641V40.8594H53.0941L52.9008 52.4961L57.225 40.8594H64.9594L59.1059 53.9551L65.6801 68ZM76.937 68H69.607V40.8594H76.937V68ZM82.552 68V40.8594H89.548L93.221 50.3867C93.421 50.9492 93.643 51.5938 93.889 52.3203C94.147 53.0469 94.429 53.8848 94.733 54.834L95.489 57.2246C95.22 54.8691 95.014 52.8535 94.874 51.1777C94.733 49.502 94.663 48.0957 94.663 46.959V40.8594H101.659V68H94.663L90.971 58.0156C90.585 56.9492 90.233 55.9531 89.917 55.0273C89.612 54.0898 89.343 53.1992 89.108 52.3555C89.261 54.2656 89.372 55.9297 89.442 57.3477C89.512 58.7656 89.548 60.0078 89.548 61.0742V68H82.552ZM106.693 67.332V58.8066C108.135 60.7754 109.693 61.7598 111.369 61.7598C112.002 61.7598 112.518 61.5957 112.916 61.2676C113.314 60.9277 113.514 60.5059 113.514 60.002C113.514 59.2754 113.08 58.5664 112.213 57.875L111.018 56.9434C110.221 56.3457 109.541 55.7539 108.979 55.168C108.416 54.5703 107.959 53.9609 107.607 53.3398C107.256 52.707 106.998 52.0566 106.834 51.3887C106.67 50.7207 106.588 50.0176 106.588 49.2793C106.588 48.0137 106.881 46.6895 107.467 45.3066C107.76 44.6621 108.1 44.0762 108.486 43.5488C108.873 43.0098 109.318 42.5352 109.822 42.125C111.205 40.9531 112.875 40.3672 114.832 40.3672C116.578 40.3672 118.336 40.8301 120.105 41.7559V50.0527C119.508 49.127 118.828 48.4004 118.066 47.873C117.305 47.334 116.555 47.0645 115.816 47.0645C115.254 47.0645 114.791 47.2285 114.428 47.5566C114.053 47.873 113.865 48.2539 113.865 48.6992C113.865 49.4258 114.363 50.1465 115.359 50.8613L116.52 51.7227C118.066 52.8359 119.174 53.9785 119.842 55.1504C120.521 56.3223 120.861 57.6934 120.861 59.2637C120.861 61.9355 120.047 64.1387 118.418 65.873C116.789 67.607 114.727 68.475 112.23 68.475C110.508 68.475 108.662 68.094 106.693 67.332ZM145.478 54.5176C145.478 58.6543 144.534 62.0176 142.648 64.6074C140.773 67.186 138.329 68.475 135.318 68.475C132.646 68.475 130.355 67.484 128.445 65.5039C126.042 62.9961 124.841 59.2344 124.841 54.2188C124.841 49.4141 126.095 45.7402 128.603 43.1973C130.466 41.3105 132.675 40.3672 135.23 40.3672C138.359 40.3672 140.849 41.6445 142.7 44.1992C144.552 46.7539 145.478 50.1934 145.478 54.5176ZM137.866 54.5703C137.866 49.6602 136.999 47.2051 135.265 47.2051C134.398 47.2051 133.706 47.8496 133.191 49.1387C132.687 50.334 132.435 52.0918 132.435 54.4121C132.435 56.6973 132.669 58.4727 133.138 59.7383C133.618 60.9922 134.28 61.6191 135.124 61.6191C135.991 61.6191 136.659 60.998 137.128 59.7559C137.62 58.5137 137.866 56.7852 137.866 54.5703ZM150.424 68V40.8594H157.42L161.094 50.3867C161.293 50.9492 161.516 51.5938 161.762 52.3203C162.02 53.0469 162.301 53.8848 162.606 54.834L163.362 57.2246C163.092 54.8691 162.887 52.8535 162.746 51.1777C162.606 49.502 162.536 48.0957 162.536 46.959V40.8594H169.532V68H162.536L158.844 58.0156C158.457 56.9492 158.106 55.9531 157.789 55.0273C157.485 54.0898 157.215 53.1992 156.981 52.3555C157.133 54.2656 157.245 55.9297 157.315 57.3477C157.385 58.7656 157.42 60.0078 157.42 61.0742V68H150.424Z" fill="black"/>
<path d="M121.73 38H108.898V10.8594H116.229V31.4785H121.73V38ZM145.556 24.5176C145.556 28.6543 144.612 32.0176 142.726 34.6074C140.851 37.1855 138.407 38.4746 135.396 38.4746C132.724 38.4746 130.433 37.4844 128.523 35.5039C126.12 32.9961 124.919 29.2344 124.919 24.2188C124.919 19.4141 126.173 15.7402 128.681 13.1973C130.544 11.3105 132.753 10.3672 135.308 10.3672C138.437 10.3672 140.927 11.6445 142.779 14.1992C144.63 16.7539 145.556 20.1934 145.556 24.5176ZM137.945 24.5703C137.945 19.6602 137.077 17.2051 135.343 17.2051C134.476 17.2051 133.784 17.8496 133.269 19.1387C132.765 20.334 132.513 22.0918 132.513 24.4121C132.513 26.6973 132.747 28.4727 133.216 29.7383C133.696 30.9922 134.359 31.6191 135.202 31.6191C136.07 31.6191 136.737 30.998 137.206 29.7559C137.698 28.5137 137.945 26.7852 137.945 24.5703ZM161.577 10.8594H168.907V30.0547C168.907 31.6602 168.655 32.9609 168.151 33.957C167.659 35 166.838 35.9434 165.69 36.7871C164.143 37.9121 162.262 38.4746 160.047 38.4746C157.539 38.4746 155.436 37.8535 153.737 36.6113C151.58 35.0293 150.502 32.498 150.502 29.0176V10.8594H157.832V28.3672C157.832 29.5508 157.973 30.3887 158.254 30.8809C158.547 31.373 159.034 31.6191 159.713 31.6191C160.416 31.6191 160.903 31.3906 161.172 30.9336C161.442 30.4531 161.577 29.6035 161.577 28.3848V10.8594ZM181.851 38H174.521V10.8594H181.851V38ZM186.886 37.332V28.8066C188.327 30.7754 189.886 31.7598 191.561 31.7598C192.194 31.7598 192.71 31.5957 193.108 31.2676C193.507 30.9277 193.706 30.5059 193.706 30.002C193.706 29.2754 193.272 28.5664 192.405 27.875L191.21 26.9434C190.413 26.3457 189.733 25.7539 189.171 25.168C188.608 24.5703 188.151 23.9609 187.8 23.3398C187.448 22.707 187.19 22.0566 187.026 21.3887C186.862 20.7207 186.78 20.0176 186.78 19.2793C186.78 18.0137 187.073 16.6895 187.659 15.3066C187.952 14.6621 188.292 14.0762 188.679 13.5488C189.065 13.0098 189.511 12.5352 190.014 12.125C191.397 10.9531 193.067 10.3672 195.024 10.3672C196.77 10.3672 198.528 10.8301 200.298 11.7559V20.0527C199.7 19.127 199.02 18.4004 198.259 17.873C197.497 17.334 196.747 17.0645 196.009 17.0645C195.446 17.0645 194.983 17.2285 194.62 17.5566C194.245 17.873 194.057 18.2539 194.057 18.6992C194.057 19.4258 194.555 20.1465 195.552 20.8613L196.712 21.7227C198.259 22.8359 199.366 23.9785 200.034 25.1504C200.714 26.3223 201.054 27.6934 201.054 29.2637C201.054 31.9355 200.239 34.1387 198.61 35.873C196.981 37.6074 194.919 38.4746 192.423 38.4746C190.7 38.4746 188.854 38.0938 186.886 37.332Z" fill="black"/>
</svg>
